<mxfile host="Electron" modified="2024-06-08T14:00:42.042Z" agent="Mozilla/5.0 (X11; Linux x86_64) AppleWebKit/537.36 (KHTML, like Gecko) draw.io/24.4.13 Chrome/124.0.6367.207 Electron/30.0.6 Safari/537.36" etag="aJ2jLnt_z1McT3VP3hXH" version="24.4.13" type="device">
  <diagram name="Page-1" id="hWDHi4y5g83n30N04bsn">
    <mxGraphModel dx="1137" dy="703" grid="1" gridSize="10" guides="1" tooltips="1" connect="1" arrows="1" fold="1" page="1" pageScale="1" pageWidth="827" pageHeight="583" math="0" shadow="0">
      <root>
        <mxCell id="0" />
        <mxCell id="1" parent="0" />
        <mxCell id="qVb45OXCok-LeIYThu6n-1" value="Main function structure" style="text;html=1;align=center;verticalAlign=middle;whiteSpace=wrap;rounded=0;fontSize=18;" parent="1" vertex="1">
          <mxGeometry x="20" y="10" width="200" height="30" as="geometry" />
        </mxCell>
        <mxCell id="iXbRzkf2VUSYfukU-zS2-17" style="edgeStyle=orthogonalEdgeStyle;rounded=0;orthogonalLoop=1;jettySize=auto;html=1;exitX=1;exitY=0.5;exitDx=0;exitDy=0;entryX=0;entryY=0.5;entryDx=0;entryDy=0;" edge="1" parent="1" source="iXbRzkf2VUSYfukU-zS2-1" target="iXbRzkf2VUSYfukU-zS2-4">
          <mxGeometry relative="1" as="geometry" />
        </mxCell>
        <mxCell id="iXbRzkf2VUSYfukU-zS2-1" value="serial, IMU initialisation&lt;div&gt;[TTK4900]&lt;/div&gt;" style="rounded=1;whiteSpace=wrap;html=1;fontSize=16;fillColor=#dae8fc;strokeColor=#6c8ebf;" vertex="1" parent="1">
          <mxGeometry x="30" y="300" width="120" height="60" as="geometry" />
        </mxCell>
        <mxCell id="iXbRzkf2VUSYfukU-zS2-16" value="" style="edgeStyle=orthogonalEdgeStyle;rounded=0;orthogonalLoop=1;jettySize=auto;html=1;" edge="1" parent="1" source="iXbRzkf2VUSYfukU-zS2-2" target="iXbRzkf2VUSYfukU-zS2-1">
          <mxGeometry relative="1" as="geometry" />
        </mxCell>
        <mxCell id="iXbRzkf2VUSYfukU-zS2-2" value="Peripheral functions start&lt;div&gt;[HAL]&lt;/div&gt;" style="rounded=1;whiteSpace=wrap;html=1;fontSize=16;fillColor=#dae8fc;strokeColor=#6c8ebf;" vertex="1" parent="1">
          <mxGeometry x="30" y="210" width="120" height="60" as="geometry" />
        </mxCell>
        <mxCell id="iXbRzkf2VUSYfukU-zS2-15" value="" style="edgeStyle=orthogonalEdgeStyle;rounded=0;orthogonalLoop=1;jettySize=auto;html=1;" edge="1" parent="1" source="iXbRzkf2VUSYfukU-zS2-3" target="iXbRzkf2VUSYfukU-zS2-2">
          <mxGeometry relative="1" as="geometry" />
        </mxCell>
        <mxCell id="iXbRzkf2VUSYfukU-zS2-3" value="Peripheral initialisation&lt;div&gt;[MX]&lt;/div&gt;" style="rounded=1;whiteSpace=wrap;html=1;fontSize=16;fillColor=#dae8fc;strokeColor=#6c8ebf;" vertex="1" parent="1">
          <mxGeometry x="30" y="120" width="120" height="60" as="geometry" />
        </mxCell>
        <mxCell id="iXbRzkf2VUSYfukU-zS2-18" value="" style="edgeStyle=orthogonalEdgeStyle;rounded=0;orthogonalLoop=1;jettySize=auto;html=1;" edge="1" parent="1" source="iXbRzkf2VUSYfukU-zS2-4" target="iXbRzkf2VUSYfukU-zS2-5">
          <mxGeometry relative="1" as="geometry" />
        </mxCell>
        <mxCell id="iXbRzkf2VUSYfukU-zS2-4" value="CAN executives" style="rounded=1;whiteSpace=wrap;html=1;fontSize=16;fillColor=#dae8fc;strokeColor=#6c8ebf;" vertex="1" parent="1">
          <mxGeometry x="220" y="80" width="120" height="60" as="geometry" />
        </mxCell>
        <mxCell id="iXbRzkf2VUSYfukU-zS2-19" value="" style="edgeStyle=orthogonalEdgeStyle;rounded=0;orthogonalLoop=1;jettySize=auto;html=1;" edge="1" parent="1" source="iXbRzkf2VUSYfukU-zS2-5" target="iXbRzkf2VUSYfukU-zS2-7">
          <mxGeometry relative="1" as="geometry" />
        </mxCell>
        <mxCell id="iXbRzkf2VUSYfukU-zS2-5" value="encoder count update" style="rounded=1;whiteSpace=wrap;html=1;fontSize=16;fillColor=#dae8fc;strokeColor=#6c8ebf;" vertex="1" parent="1">
          <mxGeometry x="220" y="160" width="120" height="60" as="geometry" />
        </mxCell>
        <mxCell id="iXbRzkf2VUSYfukU-zS2-31" style="edgeStyle=orthogonalEdgeStyle;rounded=0;orthogonalLoop=1;jettySize=auto;html=1;exitX=0;exitY=0.5;exitDx=0;exitDy=0;entryX=0;entryY=0.75;entryDx=0;entryDy=0;" edge="1" parent="1" source="iXbRzkf2VUSYfukU-zS2-6" target="iXbRzkf2VUSYfukU-zS2-4">
          <mxGeometry relative="1" as="geometry" />
        </mxCell>
        <mxCell id="iXbRzkf2VUSYfukU-zS2-6" value="ADC current draw update" style="rounded=1;whiteSpace=wrap;html=1;fontSize=16;fillColor=#dae8fc;strokeColor=#6c8ebf;" vertex="1" parent="1">
          <mxGeometry x="220" y="400" width="120" height="60" as="geometry" />
        </mxCell>
        <mxCell id="iXbRzkf2VUSYfukU-zS2-20" style="edgeStyle=orthogonalEdgeStyle;rounded=0;orthogonalLoop=1;jettySize=auto;html=1;exitX=0.5;exitY=1;exitDx=0;exitDy=0;entryX=1;entryY=0.5;entryDx=0;entryDy=0;" edge="1" parent="1" source="iXbRzkf2VUSYfukU-zS2-7" target="iXbRzkf2VUSYfukU-zS2-9">
          <mxGeometry relative="1" as="geometry" />
        </mxCell>
        <mxCell id="iXbRzkf2VUSYfukU-zS2-22" value="OPERATING" style="edgeLabel;html=1;align=center;verticalAlign=middle;resizable=0;points=[];fontSize=14;" vertex="1" connectable="0" parent="iXbRzkf2VUSYfukU-zS2-20">
          <mxGeometry x="0.0819" y="1" relative="1" as="geometry">
            <mxPoint x="12" y="-31" as="offset" />
          </mxGeometry>
        </mxCell>
        <mxCell id="iXbRzkf2VUSYfukU-zS2-21" style="edgeStyle=orthogonalEdgeStyle;rounded=0;orthogonalLoop=1;jettySize=auto;html=1;exitX=1;exitY=0.5;exitDx=0;exitDy=0;entryX=-0.001;entryY=0.546;entryDx=0;entryDy=0;entryPerimeter=0;" edge="1" parent="1" source="iXbRzkf2VUSYfukU-zS2-7" target="iXbRzkf2VUSYfukU-zS2-8">
          <mxGeometry relative="1" as="geometry">
            <mxPoint x="450" y="260" as="targetPoint" />
            <Array as="points">
              <mxPoint x="460" y="190" />
              <mxPoint x="460" y="260" />
              <mxPoint x="480" y="260" />
            </Array>
          </mxGeometry>
        </mxCell>
        <mxCell id="iXbRzkf2VUSYfukU-zS2-23" value="CALIBRATING" style="edgeLabel;html=1;align=center;verticalAlign=middle;resizable=0;points=[];fontSize=14;" vertex="1" connectable="0" parent="iXbRzkf2VUSYfukU-zS2-21">
          <mxGeometry x="-0.0244" y="-1" relative="1" as="geometry">
            <mxPoint x="24" y="-10" as="offset" />
          </mxGeometry>
        </mxCell>
        <mxCell id="iXbRzkf2VUSYfukU-zS2-7" value="GLOBAL&lt;div&gt;STATE?&lt;/div&gt;" style="rhombus;whiteSpace=wrap;html=1;fillColor=#d5e8d4;strokeColor=#82b366;" vertex="1" parent="1">
          <mxGeometry x="360" y="152.5" width="83" height="75" as="geometry" />
        </mxCell>
        <mxCell id="iXbRzkf2VUSYfukU-zS2-25" style="edgeStyle=orthogonalEdgeStyle;rounded=0;orthogonalLoop=1;jettySize=auto;html=1;exitX=1;exitY=0.5;exitDx=0;exitDy=0;entryX=0.5;entryY=1;entryDx=0;entryDy=0;" edge="1" parent="1" source="iXbRzkf2VUSYfukU-zS2-8" target="iXbRzkf2VUSYfukU-zS2-24">
          <mxGeometry relative="1" as="geometry" />
        </mxCell>
        <mxCell id="iXbRzkf2VUSYfukU-zS2-8" value="calibrate joints" style="rounded=1;whiteSpace=wrap;html=1;fontSize=16;fillColor=#dae8fc;strokeColor=#6c8ebf;" vertex="1" parent="1">
          <mxGeometry x="480" y="227.5" width="120" height="60" as="geometry" />
        </mxCell>
        <mxCell id="iXbRzkf2VUSYfukU-zS2-29" value="" style="edgeStyle=orthogonalEdgeStyle;rounded=0;orthogonalLoop=1;jettySize=auto;html=1;" edge="1" parent="1" source="iXbRzkf2VUSYfukU-zS2-9" target="iXbRzkf2VUSYfukU-zS2-11">
          <mxGeometry relative="1" as="geometry" />
        </mxCell>
        <mxCell id="iXbRzkf2VUSYfukU-zS2-9" value="update controller" style="rounded=1;whiteSpace=wrap;html=1;fontSize=16;fillColor=#dae8fc;strokeColor=#6c8ebf;" vertex="1" parent="1">
          <mxGeometry x="220" y="240" width="120" height="60" as="geometry" />
        </mxCell>
        <mxCell id="iXbRzkf2VUSYfukU-zS2-26" style="edgeStyle=orthogonalEdgeStyle;rounded=0;orthogonalLoop=1;jettySize=auto;html=1;exitX=0;exitY=0.5;exitDx=0;exitDy=0;entryX=0.5;entryY=0;entryDx=0;entryDy=0;" edge="1" parent="1" source="iXbRzkf2VUSYfukU-zS2-10" target="iXbRzkf2VUSYfukU-zS2-7">
          <mxGeometry relative="1" as="geometry" />
        </mxCell>
        <mxCell id="iXbRzkf2VUSYfukU-zS2-10" value="update state" style="rounded=1;whiteSpace=wrap;html=1;fontSize=16;fillColor=#dae8fc;strokeColor=#6c8ebf;" vertex="1" parent="1">
          <mxGeometry x="480" y="80" width="120" height="60" as="geometry" />
        </mxCell>
        <mxCell id="iXbRzkf2VUSYfukU-zS2-30" value="" style="edgeStyle=orthogonalEdgeStyle;rounded=0;orthogonalLoop=1;jettySize=auto;html=1;" edge="1" parent="1" source="iXbRzkf2VUSYfukU-zS2-11" target="iXbRzkf2VUSYfukU-zS2-6">
          <mxGeometry relative="1" as="geometry" />
        </mxCell>
        <mxCell id="iXbRzkf2VUSYfukU-zS2-11" value="accelerometer polling" style="rounded=1;whiteSpace=wrap;html=1;fontSize=16;fillColor=#dae8fc;strokeColor=#6c8ebf;" vertex="1" parent="1">
          <mxGeometry x="220" y="320" width="120" height="60" as="geometry" />
        </mxCell>
        <mxCell id="iXbRzkf2VUSYfukU-zS2-34" style="edgeStyle=orthogonalEdgeStyle;rounded=0;orthogonalLoop=1;jettySize=auto;html=1;exitX=0.75;exitY=1;exitDx=0;exitDy=0;entryX=1;entryY=0.75;entryDx=0;entryDy=0;" edge="1" parent="1" source="iXbRzkf2VUSYfukU-zS2-12" target="iXbRzkf2VUSYfukU-zS2-8">
          <mxGeometry relative="1" as="geometry" />
        </mxCell>
        <mxCell id="iXbRzkf2VUSYfukU-zS2-12" value="calibration procedure&lt;div&gt;[SM]&lt;/div&gt;" style="rounded=1;whiteSpace=wrap;html=1;fontSize=16;fillColor=#dae8fc;strokeColor=#6c8ebf;" vertex="1" parent="1">
          <mxGeometry x="648.5" y="80" width="120" height="60" as="geometry" />
        </mxCell>
        <mxCell id="iXbRzkf2VUSYfukU-zS2-14" value="" style="edgeStyle=orthogonalEdgeStyle;rounded=0;orthogonalLoop=1;jettySize=auto;html=1;" edge="1" parent="1" source="iXbRzkf2VUSYfukU-zS2-13" target="iXbRzkf2VUSYfukU-zS2-3">
          <mxGeometry relative="1" as="geometry" />
        </mxCell>
        <mxCell id="iXbRzkf2VUSYfukU-zS2-13" value="" style="ellipse;shape=doubleEllipse;html=1;dashed=0;whiteSpace=wrap;aspect=fixed;" vertex="1" parent="1">
          <mxGeometry x="75" y="60" width="30" height="30" as="geometry" />
        </mxCell>
        <mxCell id="iXbRzkf2VUSYfukU-zS2-32" style="edgeStyle=orthogonalEdgeStyle;rounded=0;orthogonalLoop=1;jettySize=auto;html=1;exitX=0;exitY=0.5;exitDx=0;exitDy=0;entryX=0.5;entryY=1;entryDx=0;entryDy=0;" edge="1" parent="1" source="iXbRzkf2VUSYfukU-zS2-24" target="iXbRzkf2VUSYfukU-zS2-10">
          <mxGeometry relative="1" as="geometry" />
        </mxCell>
        <mxCell id="iXbRzkf2VUSYfukU-zS2-35" value="YES" style="edgeLabel;html=1;align=center;verticalAlign=middle;resizable=0;points=[];fontSize=14;" vertex="1" connectable="0" parent="iXbRzkf2VUSYfukU-zS2-32">
          <mxGeometry x="0.2215" y="1" relative="1" as="geometry">
            <mxPoint as="offset" />
          </mxGeometry>
        </mxCell>
        <mxCell id="iXbRzkf2VUSYfukU-zS2-33" style="edgeStyle=orthogonalEdgeStyle;rounded=0;orthogonalLoop=1;jettySize=auto;html=1;exitX=1;exitY=0.5;exitDx=0;exitDy=0;entryX=0.5;entryY=1;entryDx=0;entryDy=0;" edge="1" parent="1" source="iXbRzkf2VUSYfukU-zS2-24" target="iXbRzkf2VUSYfukU-zS2-12">
          <mxGeometry relative="1" as="geometry">
            <Array as="points">
              <mxPoint x="708" y="190" />
            </Array>
          </mxGeometry>
        </mxCell>
        <mxCell id="iXbRzkf2VUSYfukU-zS2-36" value="NO" style="edgeLabel;html=1;align=center;verticalAlign=middle;resizable=0;points=[];fontSize=14;" vertex="1" connectable="0" parent="iXbRzkf2VUSYfukU-zS2-33">
          <mxGeometry x="0.3469" y="1" relative="1" as="geometry">
            <mxPoint as="offset" />
          </mxGeometry>
        </mxCell>
        <mxCell id="iXbRzkf2VUSYfukU-zS2-24" value="CALIB&lt;div&gt;COMPLETE?&lt;/div&gt;" style="rhombus;whiteSpace=wrap;html=1;fillColor=#d5e8d4;strokeColor=#82b366;" vertex="1" parent="1">
          <mxGeometry x="570" y="147.5" width="103" height="85" as="geometry" />
        </mxCell>
      </root>
    </mxGraphModel>
  </diagram>
</mxfile>
